<svg width="20" height="20" viewBox="0 0 20 20" fill="none" xmlns="http://www.w3.org/2000/svg">
<path d="M3.5 2.6875C3.28451 2.6875 3.07785 2.7731 2.92548 2.92548C2.7731 3.07785 2.6875 3.28451 2.6875 3.5V6.12275C2.6875 6.44598 2.5591 6.75598 2.33054 6.98454C2.10198 7.2131 1.79198 7.3415 1.46875 7.3415C1.14552 7.3415 0.835523 7.2131 0.606963 6.98454C0.378403 6.75598 0.25 6.44598 0.25 6.12275V3.5C0.25 2.63805 0.59241 1.8114 1.2019 1.2019C1.8114 0.59241 2.63805 0.25 3.5 0.25H6.12275C6.44598 0.25 6.75598 0.378403 6.98454 0.606963C7.2131 0.835523 7.3415 1.14552 7.3415 1.46875C7.3415 1.79198 7.2131 2.10198 6.98454 2.33054C6.75598 2.5591 6.44598 2.6875 6.12275 2.6875H3.5ZM12.6585 1.46875C12.6585 1.14552 12.7869 0.835523 13.0155 0.606963C13.244 0.378403 13.554 0.25 13.8772 0.25H16.5C17.362 0.25 18.1886 0.59241 18.7981 1.2019C19.4076 1.8114 19.75 2.63805 19.75 3.5V6.12275C19.75 6.44598 19.6216 6.75598 19.393 6.98454C19.1645 7.2131 18.8545 7.3415 18.5312 7.3415C18.208 7.3415 17.898 7.2131 17.6695 6.98454C17.4409 6.75598 17.3125 6.44598 17.3125 6.12275V3.5C17.3125 3.28451 17.2269 3.07785 17.0745 2.92548C16.9222 2.7731 16.7155 2.6875 16.5 2.6875H13.8772C13.554 2.6875 13.244 2.5591 13.0155 2.33054C12.7869 2.10198 12.6585 1.79198 12.6585 1.46875ZM1.46875 12.6585C1.79198 12.6585 2.10198 12.7869 2.33054 13.0155C2.5591 13.244 2.6875 13.554 2.6875 13.8772V16.5C2.6875 16.7155 2.7731 16.9222 2.92548 17.0745C3.07785 17.2269 3.28451 17.3125 3.5 17.3125H6.12275C6.44598 17.3125 6.75598 17.4409 6.98454 17.6695C7.2131 17.898 7.3415 18.208 7.3415 18.5312C7.3415 18.8545 7.2131 19.1645 6.98454 19.393C6.75598 19.6216 6.44598 19.75 6.12275 19.75H3.5C2.63805 19.75 1.8114 19.4076 1.2019 18.7981C0.59241 18.1886 0.25 17.362 0.25 16.5V13.8772C0.25 13.554 0.378403 13.244 0.606963 13.0155C0.835523 12.7869 1.14552 12.6585 1.46875 12.6585ZM18.5312 12.6585C18.8545 12.6585 19.1645 12.7869 19.393 13.0155C19.6216 13.244 19.75 13.554 19.75 13.8772V16.5C19.75 17.362 19.4076 18.1886 18.7981 18.7981C18.1886 19.4076 17.362 19.75 16.5 19.75H13.8772C13.554 19.75 13.244 19.6216 13.0155 19.393C12.7869 19.1645 12.6585 18.8545 12.6585 18.5312C12.6585 18.208 12.7869 17.898 13.0155 17.6695C13.244 17.4409 13.554 17.3125 13.8772 17.3125H16.5C16.7155 17.3125 16.9222 17.2269 17.0745 17.0745C17.2269 16.9222 17.3125 16.7155 17.3125 16.5V13.8772C17.3125 13.554 17.4409 13.244 17.6695 13.0155C17.898 12.7869 18.208 12.6585 18.5312 12.6585Z" fill="white"/>
</svg>
