<svg width="16" height="16" viewBox="0 0 16 16" fill="none" xmlns="http://www.w3.org/2000/svg">
<path fill-rule="evenodd" clip-rule="evenodd" d="M7.99994 9.414L11.5353 12.95C11.7229 13.1376 11.9773 13.243 12.2426 13.243C12.5079 13.243 12.7623 13.1376 12.9499 12.95C13.1375 12.7624 13.2429 12.508 13.2429 12.2427C13.2429 11.9774 13.1375 11.7229 12.9499 11.5353L9.41327 8L12.9493 4.46466C13.0421 4.37178 13.1158 4.26151 13.166 4.14016C13.2162 4.01881 13.2421 3.88876 13.242 3.75743C13.242 3.6261 13.2161 3.49605 13.1658 3.37473C13.1155 3.25341 13.0418 3.14318 12.9489 3.05033C12.8561 2.95749 12.7458 2.88385 12.6244 2.83362C12.5031 2.78339 12.373 2.75755 12.2417 2.75758C12.1104 2.75761 11.9803 2.78351 11.859 2.8338C11.7377 2.88408 11.6275 2.95778 11.5346 3.05066L7.99994 6.586L4.46461 3.05066C4.3724 2.95511 4.2621 2.87888 4.14012 2.82641C4.01814 2.77395 3.88693 2.7463 3.75415 2.74508C3.62137 2.74387 3.48968 2.76911 3.36676 2.81933C3.24384 2.86955 3.13216 2.94375 3.03822 3.0376C2.94429 3.13145 2.86998 3.24307 2.81964 3.36594C2.7693 3.48881 2.74394 3.62048 2.74503 3.75326C2.74612 3.88604 2.77364 4.01727 2.82599 4.1393C2.87834 4.26132 2.95447 4.37171 3.04994 4.464L6.58661 8L3.05061 11.5353C2.86301 11.7229 2.75762 11.9774 2.75762 12.2427C2.75762 12.508 2.86301 12.7624 3.05061 12.95C3.2382 13.1376 3.49264 13.243 3.75794 13.243C4.02324 13.243 4.27768 13.1376 4.46527 12.95L7.99994 9.41333V9.414Z" fill="white"/>
</svg>
