<svg width="20" height="20" viewBox="0 0 20 20" fill="none" xmlns="http://www.w3.org/2000/svg">
<path d="M5.1957 17.1874C4.95587 17.187 4.72028 17.1241 4.51211 17.005C4.04336 16.7394 3.75195 16.2238 3.75195 15.664V4.33588C3.75195 3.77456 4.04336 3.26049 4.51211 2.99487C4.72524 2.87238 4.96735 2.80939 5.21315 2.81249C5.45894 2.81558 5.6994 2.88464 5.90938 3.01245L15.591 8.80776C15.7928 8.93428 15.9591 9.10997 16.0744 9.31836C16.1897 9.52675 16.2502 9.76101 16.2502 9.99917C16.2502 10.2373 16.1897 10.4716 16.0744 10.68C15.9591 10.8884 15.7928 11.0641 15.591 11.1906L5.90781 16.9874C5.69293 17.1174 5.4468 17.1865 5.1957 17.1874Z" fill="#FFFFFF"/>
</svg>
