<svg width="23" height="17" viewBox="0 0 23 17" fill="none" xmlns="http://www.w3.org/2000/svg">
<path fill-rule="evenodd" clip-rule="evenodd" d="M0 0H15V3H18.0246L22.0039 8.6848V14H19.3472C18.9254 15.3056 17.6999 16.25 16.2539 16.25C14.8079 16.25 13.5824 15.3056 13.1607 14H9.2563C8.8346 15.3056 7.6091 16.25 6.1631 16.25C4.7171 16.25 3.4916 15.3056 3.0698 14H0V0ZM3.0698 12C3.4916 10.6944 4.7171 9.75 6.1631 9.75C7.6091 9.75 8.8346 10.6944 9.2563 12H13V2H2V12H3.0698ZM15 10.0007C15.3972 9.83467 15.8234 9.74944 16.2539 9.75C17.6999 9.75 18.9254 10.6944 19.3472 12H20.0039V9.3152L16.9833 5H15V10.0007ZM6.163 11.75C5.4727 11.75 4.913 12.3096 4.913 13C4.913 13.6904 5.4727 14.25 6.163 14.25C6.8534 14.25 7.413 13.6904 7.413 13C7.413 12.3096 6.8534 11.75 6.163 11.75ZM16.2539 11.75C15.5635 11.75 15.0039 12.3096 15.0039 13C15.0039 13.6904 15.5635 14.25 16.2539 14.25C16.9443 14.25 17.5039 13.6904 17.5039 13C17.5039 12.3096 16.9443 11.75 16.2539 11.75Z" fill="#232B2B"/>
</svg>
