<?xml version="1.0" standalone="no"?>
<!DOCTYPE svg PUBLIC "-//W3C//DTD SVG 20010904//EN"
 "http://www.w3.org/TR/2001/REC-SVG-20010904/DTD/svg10.dtd">
<svg version="1.0" xmlns="http://www.w3.org/2000/svg"
 width="312.000000pt" height="312.000000pt" viewBox="0 0 312.000000 312.000000"
 preserveAspectRatio="xMidYMid meet">
<metadata>
Created by potrace 1.14, written by Peter Selinger 2001-2017
</metadata>
<g transform="translate(0.000000,312.000000) scale(0.100000,-0.100000)"
fill="#000000" stroke="none">
<path d="M1029 2646 c-70 -20 -134 -62 -194 -128 -53 -59 -92 -131 -218 -398
-24 -52 -67 -142 -95 -200 -85 -178 -162 -342 -162 -345 0 -2 -43 -92 -95
-200 -52 -109 -95 -199 -95 -201 0 -2 -29 -62 -64 -134 -36 -71 -72 -150 -82
-177 -22 -65 -26 -164 -8 -218 20 -58 82 -120 152 -153 l57 -27 516 -3 516 -3
-3 48 c-2 48 -7 82 -19 158 -12 68 -65 192 -106 247 -74 99 -152 138 -282 141
l-75 2 25 55 c14 30 78 174 143 320 64 146 130 293 146 328 l29 64 51 -99 c28
-54 84 -161 124 -238 40 -77 96 -185 125 -240 29 -55 98 -190 155 -300 57
-110 119 -224 137 -254 51 -80 131 -154 209 -192 62 -30 78 -34 154 -34 75 0
93 4 152 32 107 50 191 144 258 288 18 39 55 117 83 175 27 58 84 179 127 270
154 328 217 461 296 628 63 133 107 244 121 305 4 18 7 70 7 117 1 73 -3 93
-27 142 -35 71 -94 129 -171 167 -66 32 -164 60 -223 64 l-38 2 -72 -170 c-39
-93 -78 -186 -86 -205 -8 -19 -45 -106 -81 -192 -36 -87 -95 -227 -130 -310
-35 -84 -93 -222 -129 -307 -61 -145 -65 -153 -77 -130 -7 13 -27 49 -43 79
-16 30 -48 89 -70 130 -22 41 -106 199 -187 350 -81 151 -171 320 -200 375
-110 206 -181 289 -294 345 -77 38 -179 49 -257 26z"/>
</g>
</svg>
