<svg width="18" height="16" viewBox="0 0 18 16" fill="none" xmlns="http://www.w3.org/2000/svg">
<path d="M8.99984 12.5833C10.0415 12.5833 10.9271 12.2189 11.6565 11.49C12.3854 10.7606 12.7498 9.875 12.7498 8.83333C12.7498 7.79167 12.3854 6.90611 11.6565 6.17667C10.9271 5.44778 10.0415 5.08333 8.99984 5.08333C7.95817 5.08333 7.07261 5.44778 6.34317 6.17667C5.61428 6.90611 5.24984 7.79167 5.24984 8.83333C5.24984 9.875 5.61428 10.7606 6.34317 11.49C7.07261 12.2189 7.95817 12.5833 8.99984 12.5833ZM8.99984 10.9167C8.4165 10.9167 7.92345 10.7153 7.52067 10.3125C7.11789 9.90972 6.9165 9.41667 6.9165 8.83333C6.9165 8.25 7.11789 7.75694 7.52067 7.35417C7.92345 6.95139 8.4165 6.75 8.99984 6.75C9.58317 6.75 10.0762 6.95139 10.479 7.35417C10.8818 7.75694 11.0832 8.25 11.0832 8.83333C11.0832 9.41667 10.8818 9.90972 10.479 10.3125C10.0762 10.7153 9.58317 10.9167 8.99984 10.9167ZM2.33317 15.5C1.87484 15.5 1.48261 15.3369 1.1565 15.0108C0.829837 14.6842 0.666504 14.2917 0.666504 13.8333V3.83333C0.666504 3.375 0.829837 2.98278 1.1565 2.65667C1.48261 2.33 1.87484 2.16667 2.33317 2.16667H4.95817L6.49984 0.5H11.4998L13.0415 2.16667H15.6665C16.1248 2.16667 16.5173 2.33 16.844 2.65667C17.1701 2.98278 17.3332 3.375 17.3332 3.83333V13.8333C17.3332 14.2917 17.1701 14.6842 16.844 15.0108C16.5173 15.3369 16.1248 15.5 15.6665 15.5H2.33317ZM15.6665 13.8333V3.83333H12.2915L10.7707 2.16667H7.229L5.70817 3.83333H2.33317V13.8333H15.6665Z" fill="#232B2B"/>
</svg>
