<svg width="20" height="20" viewBox="0 0 20 20" fill="none" xmlns="http://www.w3.org/2000/svg">
<path d="M5.95801 17.5833C5.74967 17.375 5.64551 17.1283 5.64551 16.8433C5.64551 16.5589 5.74967 16.3125 5.95801 16.1041L12.0622 9.99998L5.93717 3.87498C5.74273 3.68054 5.64551 3.43748 5.64551 3.14581C5.64551 2.85415 5.74967 2.60415 5.95801 2.39581C6.16634 2.18748 6.41301 2.08331 6.69801 2.08331C6.98245 2.08331 7.22884 2.18748 7.43717 2.39581L14.4372 9.41665C14.5205 9.49998 14.5797 9.59026 14.6147 9.68748C14.6491 9.7847 14.6663 9.88887 14.6663 9.99998C14.6663 10.1111 14.6491 10.2153 14.6147 10.3125C14.5797 10.4097 14.5205 10.5 14.4372 10.5833L7.41634 17.6041C7.2219 17.7986 6.98245 17.8958 6.69801 17.8958C6.41301 17.8958 6.16634 17.7916 5.95801 17.5833Z" fill="#232B2B"/>
</svg>
