<svg width="13" height="11" viewBox="0 0 13 11" fill="none" xmlns="http://www.w3.org/2000/svg">
<path d="M1.6667 0.270973L6.2099 4.80362C6.30866 4.90215 6.37846 5.0089 6.41928 5.12386C6.46076 5.23882 6.4815 5.36199 6.4815 5.49337C6.4815 5.62475 6.46076 5.74792 6.41928 5.86288C6.37846 5.97783 6.30866 6.08458 6.2099 6.18312L1.6667 10.7158C1.48563 10.8964 1.25946 10.991 0.988185 10.9995C0.716251 11.0074 0.48152 10.9128 0.28399 10.7158C0.102921 10.5351 0.0123845 10.3052 0.0123845 10.026C0.0123845 9.74683 0.102921 9.51691 0.28399 9.33626L4.11114 5.49337L0.283991 1.65047C0.102921 1.46982 0.00843515 1.24418 0.00053398 0.973532C-0.00802522 0.702231 0.0864601 0.468045 0.283991 0.270973C0.46506 0.0903243 0.695511 -1.07569e-06 0.975346 -1.05123e-06C1.25518 -1.02676e-06 1.48563 0.0903243 1.6667 0.270973ZM8.1852 0.270974L12.7284 4.80362C12.8272 4.90215 12.897 5.0089 12.9378 5.12386C12.9793 5.23882 13 5.36199 13 5.49337C13 5.62475 12.9793 5.74792 12.9378 5.86288C12.897 5.97784 12.8272 6.08458 12.7284 6.18312L8.1852 10.7158C8.00413 10.8964 7.77763 10.991 7.5057 10.9995C7.23442 11.0074 7.00002 10.9128 6.80249 10.7158C6.62142 10.5351 6.53088 10.3052 6.53088 10.026C6.53088 9.74683 6.62142 9.51691 6.80249 9.33626L10.6296 5.49337L6.80249 1.65047C6.62142 1.46983 6.52661 1.24418 6.51805 0.973533C6.51014 0.702232 6.60496 0.468046 6.80249 0.270974C6.98356 0.0903248 7.21401 -5.05827e-07 7.49384 -4.81363e-07C7.77368 -4.569e-07 8.00413 0.0903249 8.1852 0.270974Z" fill="white"/>
</svg>
