<svg width="19" height="19" viewBox="0 0 19 19" fill="none" xmlns="http://www.w3.org/2000/svg">
<path d="M17.8673 12.4041C18.5238 10.5239 18.5238 8.47662 17.8673 6.59633C17.8602 6.55973 17.8492 6.52399 17.8345 6.48969C17.2164 4.77494 16.0843 3.29259 14.5928 2.24479C13.1013 1.197 11.3229 0.634766 9.50015 0.634766C7.67738 0.634766 5.89897 1.197 4.40746 2.24479C2.91594 3.29259 1.78392 4.77494 1.16577 6.48969C1.15113 6.52399 1.14014 6.55973 1.13296 6.59633C0.476514 8.47662 0.476514 10.5239 1.13296 12.4041C1.14014 12.4407 1.15113 12.4765 1.16577 12.5108C1.78392 14.2255 2.91594 15.7079 4.40746 16.7557C5.89897 17.8035 7.67738 18.3657 9.50015 18.3657C11.3229 18.3657 13.1013 17.8035 14.5928 16.7557C16.0843 15.7079 17.2164 14.2255 17.8345 12.5108C17.8492 12.4765 17.8602 12.4407 17.8673 12.4041ZM7.87593 13.1096H11.1244C10.7511 14.0929 10.2006 14.9993 9.50015 15.7838C8.79972 14.9993 8.2492 14.0929 7.87593 13.1096ZM7.33452 11.1409C7.15952 10.0541 7.15952 8.94636 7.33452 7.85961H11.6658C11.8408 8.94636 11.8408 10.0541 11.6658 11.1409H7.33452ZM2.60952 9.50024C2.61184 8.94761 2.6779 8.3971 2.8064 7.85961H5.34116C5.27244 8.40383 5.23683 8.95171 5.23452 9.50024C5.23657 10.0488 5.27218 10.5967 5.34116 11.1409H2.8064C2.6779 10.6034 2.61184 10.0529 2.60952 9.50024ZM11.1244 5.89086H7.87593C8.2492 4.90761 8.79972 4.00119 9.50015 3.21664C10.2006 4.00119 10.7511 4.90761 11.1244 5.89086ZM13.6591 7.85961H16.1939C16.4565 8.9376 16.4565 10.0629 16.1939 11.1409H13.6591C13.7281 10.5967 13.7637 10.0488 13.7658 9.50024C13.7635 8.95171 13.7278 8.40383 13.6591 7.85961ZM15.3654 5.89086H13.2244C12.906 4.8723 12.4418 3.90523 11.8462 3.01977C13.3065 3.55779 14.5452 4.56833 15.3654 5.89086ZM7.15405 3.01977C6.55845 3.90523 6.09425 4.8723 5.77593 5.89086H3.63491C4.45514 4.56833 5.69377 3.55779 7.15405 3.01977ZM3.63491 13.1096H5.77593C6.09425 14.1282 6.55845 15.0952 7.15405 15.9807C5.69218 15.4455 4.45273 14.4343 3.63491 13.1096ZM11.8462 15.9807C12.4418 15.0952 12.906 14.1282 13.2244 13.1096H15.3654C14.5476 14.4343 13.3081 15.4455 11.8462 15.9807Z" fill="#232B2B"/>
</svg>
