<svg width="17" height="17" viewBox="0 0 17 17" fill="none" xmlns="http://www.w3.org/2000/svg">
<path fill-rule="evenodd" clip-rule="evenodd" d="M7.75021 0.666504C6.62071 0.6666 5.5076 0.936807 4.50376 1.45458C3.49992 1.97236 2.63446 2.72268 1.97957 3.64297C1.32469 4.56325 0.899386 5.62679 0.739135 6.74487C0.578884 7.86295 0.688336 9.00315 1.05836 10.0703C1.42838 11.1375 2.04825 12.1007 2.86624 12.8796C3.68423 13.6585 4.67663 14.2305 5.76064 14.5478C6.84465 14.8652 7.98883 14.9187 9.09773 14.7039C10.2066 14.4892 11.2481 14.0123 12.1352 13.3132L15.1785 16.3565C15.3357 16.5083 15.5462 16.5923 15.7647 16.5904C15.9832 16.5885 16.1922 16.5009 16.3467 16.3464C16.5012 16.1918 16.5889 15.9828 16.5908 15.7643C16.5927 15.5458 16.5087 15.3353 16.3569 15.1782L13.3135 12.1348C14.1369 11.0904 14.6495 9.83517 14.7928 8.51294C14.9361 7.19071 14.7042 5.85485 14.1237 4.65825C13.5433 3.46164 12.6376 2.45263 11.5105 1.7467C10.3833 1.04076 9.08018 0.666415 7.75021 0.666504ZM2.33354 7.74984C2.33354 6.31325 2.90423 4.9355 3.92005 3.91968C4.93587 2.90385 6.31362 2.33317 7.75021 2.33317C9.1868 2.33317 10.5646 2.90385 11.5804 3.91968C12.5962 4.9355 13.1669 6.31325 13.1669 7.74984C13.1669 9.18643 12.5962 10.5642 11.5804 11.58C10.5646 12.5958 9.1868 13.1665 7.75021 13.1665C6.31362 13.1665 4.93587 12.5958 3.92005 11.58C2.90423 10.5642 2.33354 9.18643 2.33354 7.74984Z" fill="#232B2B"/>
</svg>
