<svg width="11" height="8" viewBox="0 0 11 8" fill="none" xmlns="http://www.w3.org/2000/svg">
<path fill-rule="evenodd" clip-rule="evenodd" d="M5.5 0C5.97025 0 6.4526 0.011 6.9201 0.029L7.4723 0.053L8.00085 0.0815001L8.49585 0.112L8.94795 0.144C9.43858 0.178139 9.90025 0.368473 10.2517 0.68152C10.6032 0.994566 10.822 1.41027 10.8697 1.8555L10.8917 2.068L10.9329 2.523C10.9714 2.9945 11 3.5085 11 4C11 4.4915 10.9714 5.0055 10.9329 5.477L10.8917 5.932C10.8845 6.005 10.8774 6.0755 10.8697 6.1445C10.822 6.58981 10.6031 7.00558 10.2515 7.31863C9.89993 7.63169 9.43813 7.82197 8.9474 7.856L8.4964 7.8875L8.0014 7.9185L7.4723 7.947L6.9201 7.971C6.44701 7.98969 5.97354 7.99936 5.5 8C5.02646 7.99936 4.55299 7.98969 4.0799 7.971L3.5277 7.947L2.99915 7.9185L2.50415 7.8875L2.05205 7.856C1.56142 7.82186 1.09975 7.63153 0.74826 7.31848C0.396766 7.00543 0.177966 6.58973 0.13035 6.1445L0.10835 5.932L0.0671 5.477C0.0250457 4.98557 0.00266421 4.49291 0 4C0 3.5085 0.0286 2.9945 0.0671 2.523L0.10835 2.068C0.1155 1.995 0.12265 1.9245 0.13035 1.8555C0.177947 1.41035 0.396669 0.994708 0.74805 0.681672C1.09943 0.368636 1.56097 0.178251 2.0515 0.144L2.50305 0.112L2.99805 0.0815001L3.52715 0.053L4.07935 0.029C4.55263 0.0103165 5.02628 0.000647643 5.5 0ZM4.4 2.7875V5.2125C4.4 5.4435 4.675 5.5875 4.895 5.4725L7.205 4.26C7.25527 4.2337 7.29702 4.19581 7.32605 4.15017C7.35508 4.10452 7.37037 4.05273 7.37037 4C7.37037 3.94727 7.35508 3.89548 7.32605 3.84983C7.29702 3.80419 7.25527 3.7663 7.205 3.74L4.895 2.528C4.84482 2.50166 4.78789 2.4878 4.72995 2.48781C4.672 2.48782 4.61508 2.50169 4.56491 2.52805C4.51474 2.5544 4.47308 2.5923 4.44413 2.63793C4.41518 2.68357 4.39996 2.73532 4.4 2.788V2.7875Z" fill="white"/>
</svg>
